# Blender v2.83.2 OBJ File: ''
# www.blender.org
mtllib Object10.mtl
o Object10
v -0.500000 -0.125000 -0.275000
v 0.500000 -0.125000 -0.275000
v -0.500000 0.250000 -0.275000
v 0.500000 0.250000 -0.275000
v 0.496354 0.310268 -0.275000
v 0.485471 0.369658 -0.275000
v 0.467508 0.427302 -0.275000
v 0.442728 0.482362 -0.275000
v 0.411492 0.534032 -0.275000
v 0.374255 0.581561 -0.275000
v 0.331561 0.624255 -0.275000
v 0.284032 0.661492 -0.275000
v 0.232362 0.692728 -0.275000
v -0.496354 0.310268 -0.275000
v -0.442728 0.482362 -0.275000
v -0.467508 0.427302 -0.275000
v -0.485471 0.369658 -0.275000
v -0.284032 0.661492 -0.275000
v -0.331561 0.624255 -0.275000
v -0.232362 0.692728 -0.275000
v 0.177302 0.717508 -0.275000
v 0.119658 0.735471 -0.275000
v -0.374255 0.581561 -0.275000
v -0.411492 0.534032 -0.275000
v 0.060268 0.746354 -0.275000
v 0.000000 0.750000 -0.275000
v -0.177302 0.717508 -0.275000
v -0.060268 0.746354 -0.275000
v -0.119658 0.735471 -0.275000
v 0.500000 -0.750000 -0.400000
v 0.350000 -0.750000 -0.400000
v 0.350000 -0.250000 -0.400000
v -0.350000 -0.750000 -0.400000
v -0.500000 -0.750000 -0.400000
v -0.350000 -0.250000 -0.400000
v -0.500000 0.250000 -0.400000
v 0.232362 0.692728 -0.400000
v 0.284032 0.661492 -0.400000
v 0.331561 0.624255 -0.400000
v 0.374255 0.581561 -0.400000
v -0.496354 0.310268 -0.400000
v -0.485471 0.369658 -0.400000
v -0.467508 0.427302 -0.400000
v 0.411492 0.534032 -0.400000
v 0.442728 0.482362 -0.400000
v 0.467508 0.427302 -0.400000
v 0.485471 0.369658 -0.400000
v 0.496354 0.310268 -0.400000
v 0.500000 0.250000 -0.400000
v -0.442728 0.482362 -0.400000
v -0.411492 0.534032 -0.400000
v -0.374255 0.581561 -0.400000
v -0.232362 0.692728 -0.400000
v -0.177302 0.717508 -0.400000
v -0.331561 0.624255 -0.400000
v -0.284032 0.661492 -0.400000
v 0.000000 0.750000 -0.400000
v 0.060268 0.746354 -0.400000
v 0.119658 0.735471 -0.400000
v 0.177302 0.717508 -0.400000
v -0.119658 0.735471 -0.400000
v -0.060268 0.746354 -0.400000
v 0.500000 -0.750000 -0.250000
v 0.500000 -0.250000 -0.250000
v 0.500000 -0.250000 0.250000
v 0.500000 -0.125000 0.400000
v 0.500000 -0.750000 0.250000
v 0.500000 -0.750000 0.400000
v -0.500000 -0.250000 -0.250000
v -0.500000 -0.750000 -0.250000
v -0.500000 0.250000 -0.275000
v -0.500000 -0.125000 -0.275000
v -0.500000 -0.125000 0.400000
v -0.500000 -0.250000 0.250000
v -0.500000 -0.750000 0.400000
v -0.500000 -0.750000 0.250000
v 0.350000 -0.250000 0.250000
v 0.350000 -0.250000 0.400000
v -0.350000 -0.250000 0.400000
v -0.350000 -0.250000 -0.250000
v 0.350000 -0.250000 -0.250000
v -0.350000 -0.250000 0.250000
v 0.350000 -0.750000 0.400000
v -0.350000 -0.750000 0.400000
v -0.350000 -0.750000 0.250000
v -0.500000 -0.750000 0.250000
v 0.350000 -0.750000 0.250000
v 0.350000 -0.750000 -0.250000
v 0.350000 -0.750000 -0.400000
v -0.350000 -0.750000 -0.250000
v -0.500000 -0.750000 -0.250000
vn 0.0000 0.0000 1.0000
vn 0.0000 0.0000 -1.0000
vn 1.0000 0.0000 0.0000
vn -1.0000 0.0000 0.0000
vn 0.0000 -1.0000 0.0000
vn 0.0000 1.0000 0.0000
vn -0.9982 0.0604 0.0000
vn -0.9836 0.1803 0.0000
vn -0.9547 0.2975 0.0000
vn -0.9119 0.4104 0.0000
vn -0.8558 0.5173 0.0000
vn -0.7872 0.6167 0.0000
vn -0.7071 0.7071 0.0000
vn -0.6167 0.7872 0.0000
vn -0.5173 0.8558 0.0000
vn -0.4104 0.9119 0.0000
vn -0.2975 0.9547 0.0000
vn -0.1803 0.9836 0.0000
vn -0.0604 0.9982 0.0000
vn 0.0604 0.9982 0.0000
vn 0.1803 0.9836 0.0000
vn 0.2975 0.9547 0.0000
vn 0.4104 0.9119 0.0000
vn 0.5173 0.8558 0.0000
vn 0.6167 0.7872 0.0000
vn 0.7071 0.7071 0.0000
vn 0.7872 0.6167 0.0000
vn 0.8558 0.5173 0.0000
vn 0.9119 0.4104 0.0000
vn 0.9547 0.2975 0.0000
vn 0.9836 0.1803 0.0000
vn 0.9982 0.0604 0.0000
usemtl None
s off
f 1//1 2//1 3//1
f 3//1 2//1 4//1
f 3//1 4//1 5//1
f 5//1 6//1 3//1
f 3//1 6//1 7//1
f 3//1 7//1 8//1
f 8//1 9//1 3//1
f 3//1 9//1 10//1
f 3//1 10//1 11//1
f 11//1 12//1 3//1
f 3//1 12//1 13//1
f 3//1 13//1 14//1
f 15//1 16//1 13//1
f 13//1 16//1 17//1
f 13//1 17//1 14//1
f 13//1 18//1 19//1
f 18//1 13//1 20//1
f 20//1 13//1 21//1
f 20//1 21//1 22//1
f 19//1 23//1 13//1
f 13//1 23//1 24//1
f 13//1 24//1 15//1
f 22//1 25//1 20//1
f 20//1 25//1 26//1
f 20//1 26//1 27//1
f 27//1 26//1 28//1
f 27//1 28//1 29//1
f 30//2 31//2 32//2
f 33//2 34//2 35//2
f 35//2 34//2 36//2
f 35//2 36//2 37//2
f 37//2 38//2 35//2
f 35//2 38//2 39//2
f 35//2 39//2 40//2
f 36//2 41//2 37//2
f 37//2 41//2 42//2
f 37//2 42//2 43//2
f 40//2 44//2 35//2
f 35//2 44//2 45//2
f 35//2 45//2 46//2
f 46//2 47//2 35//2
f 35//2 47//2 48//2
f 35//2 48//2 32//2
f 32//2 48//2 49//2
f 32//2 49//2 30//2
f 43//2 50//2 37//2
f 37//2 50//2 51//2
f 37//2 51//2 52//2
f 37//2 53//2 54//2
f 52//2 55//2 37//2
f 37//2 55//2 56//2
f 37//2 56//2 53//2
f 57//2 58//2 37//2
f 37//2 58//2 59//2
f 37//2 59//2 60//2
f 54//2 61//2 37//2
f 37//2 61//2 62//2
f 37//2 62//2 57//2
f 30//3 49//3 2//3
f 2//3 49//3 4//3
f 63//3 30//3 64//3
f 64//3 30//3 2//3
f 64//3 2//3 65//3
f 65//3 2//3 66//3
f 65//3 66//3 67//3
f 67//3 66//3 68//3
f 36//4 34//4 69//4
f 69//4 34//4 70//4
f 71//4 36//4 72//4
f 72//4 36//4 69//4
f 72//4 69//4 73//4
f 73//4 69//4 74//4
f 73//4 74//4 75//4
f 75//4 74//4 76//4
f 77//5 78//5 79//5
f 80//5 35//5 32//5
f 81//5 64//5 65//5
f 82//5 74//5 69//5
f 69//5 80//5 82//5
f 82//5 80//5 32//5
f 82//5 32//5 79//5
f 79//5 32//5 81//5
f 79//5 81//5 77//5
f 77//5 81//5 65//5
f 83//1 68//1 78//1
f 78//1 68//1 66//1
f 78//1 66//1 79//1
f 79//1 66//1 73//1
f 79//1 73//1 84//1
f 84//1 73//1 75//1
f 1//6 73//6 2//6
f 2//6 73//6 66//6
f 85//2 86//2 82//2
f 82//2 86//2 74//2
f 84//3 85//3 79//3
f 79//3 85//3 82//3
f 85//5 84//5 86//5
f 86//5 84//5 75//5
f 87//4 83//4 77//4
f 77//4 83//4 78//4
f 67//2 87//2 65//2
f 65//2 87//2 77//2
f 83//5 87//5 68//5
f 68//5 87//5 67//5
f 88//1 63//1 81//1
f 81//1 63//1 64//1
f 89//4 88//4 32//4
f 32//4 88//4 81//4
f 88//5 89//5 63//5
f 63//5 89//5 30//5
f 90//3 33//3 80//3
f 80//3 33//3 35//3
f 91//1 90//1 69//1
f 69//1 90//1 80//1
f 33//5 90//5 34//5
f 34//5 90//5 91//5
f 36//7 3//7 14//7
f 36//7 14//7 41//7
f 41//8 14//8 17//8
f 41//8 17//8 42//8
f 42//9 17//9 16//9
f 42//9 16//9 43//9
f 43//10 16//10 15//10
f 43//10 15//10 50//10
f 50//11 15//11 24//11
f 50//11 24//11 51//11
f 51//12 24//12 23//12
f 51//12 23//12 52//12
f 52//13 23//13 19//13
f 52//13 19//13 55//13
f 55//14 19//14 18//14
f 55//14 18//14 56//14
f 56//15 18//15 20//15
f 56//15 20//15 53//15
f 53//16 20//16 27//16
f 53//16 27//16 54//16
f 54//17 27//17 29//17
f 54//17 29//17 61//17
f 61//18 29//18 28//18
f 61//18 28//18 62//18
f 62//19 28//19 26//19
f 62//19 26//19 57//19
f 57//20 26//20 25//20
f 57//20 25//20 58//20
f 58//21 25//21 22//21
f 58//21 22//21 59//21
f 59//22 22//22 21//22
f 59//22 21//22 60//22
f 60//23 21//23 13//23
f 60//23 13//23 37//23
f 37//24 13//24 12//24
f 37//24 12//24 38//24
f 38//25 12//25 11//25
f 38//25 11//25 39//25
f 39//26 11//26 10//26
f 39//26 10//26 40//26
f 40//27 10//27 9//27
f 40//27 9//27 44//27
f 44//28 9//28 8//28
f 44//28 8//28 45//28
f 45//29 8//29 7//29
f 45//29 7//29 46//29
f 46//30 7//30 6//30
f 46//30 6//30 47//30
f 47//31 6//31 5//31
f 47//31 5//31 48//31
f 48//32 5//32 4//32
f 48//32 4//32 49//32
