# Blender v2.83.2 OBJ File: ''
# www.blender.org
mtllib Object5.mtl
o Object5
v -0.500000 0.500000 0.500000
v -0.500000 0.500000 -0.500000
v -0.500000 -0.500000 0.500000
v -0.500000 -0.500000 -0.500000
v 0.500000 0.500000 0.500000
v 0.500000 -0.500000 0.500000
v 0.500000 0.500000 -0.500000
v 0.500000 -0.500000 -0.500000
v -0.250000 0.500000 -0.333330
v -0.250000 0.500000 0.333330
v 0.250000 0.500000 0.333330
v -0.250000 -0.500000 -0.333330
v 0.250000 -0.500000 0.333330
v -0.250000 -0.500000 0.333330
vn -1.0000 0.0000 0.0000
vn 0.0000 0.0000 1.0000
vn 1.0000 0.0000 0.0000
vn 0.0000 0.0000 -1.0000
vn -0.0000 1.0000 0.0000
vn 0.0000 -1.0000 0.0000
vn -0.8000 -0.0000 0.6000
usemtl None
s off
f 1//1 2//1 3//1
f 3//1 2//1 4//1
f 5//2 1//2 6//2
f 6//2 1//2 3//2
f 7//3 5//3 8//3
f 8//3 5//3 6//3
f 2//4 7//4 4//4
f 4//4 7//4 8//4
f 9//5 2//5 10//5
f 10//5 2//5 1//5
f 10//5 1//5 11//5
f 11//5 1//5 5//5
f 11//5 5//5 9//5
f 9//5 5//5 7//5
f 9//5 7//5 2//5
f 3//6 4//6 12//6
f 12//6 4//6 8//6
f 12//6 8//6 13//6
f 13//6 8//6 6//6
f 13//6 6//6 14//6
f 14//6 6//6 3//6
f 14//6 3//6 12//6
f 9//3 10//3 12//3
f 12//3 10//3 14//3
f 11//7 9//7 13//7
f 13//7 9//7 12//7
f 10//4 11//4 14//4
f 14//4 11//4 13//4
