# Blender v2.83.2 OBJ File: ''
# www.blender.org
mtllib Object7.mtl
o Object7
v -0.499900 -0.408148 0.433113
v 0.000100 -0.408148 -0.432913
v 0.500100 -0.408148 0.433113
v 0.000100 -0.108148 -0.220781
v 0.150100 -0.108148 0.039027
v 0.150100 0.041852 0.145093
v 0.000100 0.408348 0.144438
v 0.000100 0.041852 -0.114715
v 0.150100 -0.108148 0.327047
v -0.149900 -0.108148 0.327047
v -0.149900 0.041852 0.274014
v 0.150100 0.041852 0.274014
v -0.149900 -0.108148 0.039027
v -0.149900 0.041852 0.145093
vn 0.0000 -1.0000 -0.0000
vn 0.8165 0.3333 -0.4714
vn 0.0000 0.3333 0.9428
vn -0.8165 0.3333 -0.4714
vn -1.0000 0.0000 0.0000
vn 1.0000 -0.0000 0.0000
vn 0.0000 1.0000 0.0000
usemtl None
s off
f 1//1 2//1 3//1
f 3//2 2//2 4//2
f 4//2 5//2 3//2
f 3//2 5//2 6//2
f 3//2 6//2 7//2
f 7//2 6//2 8//2
f 9//3 10//3 1//3
f 1//3 10//3 11//3
f 1//3 11//3 7//3
f 7//3 11//3 12//3
f 7//3 12//3 3//3
f 3//3 12//3 9//3
f 3//3 9//3 1//3
f 4//4 2//4 13//4
f 13//4 2//4 1//4
f 13//4 1//4 14//4
f 14//4 1//4 7//4
f 14//4 7//4 8//4
f 12//5 6//5 9//5
f 9//5 6//5 5//5
f 14//6 11//6 13//6
f 13//6 11//6 10//6
f 14//1 8//1 11//1
f 11//1 8//1 6//1
f 11//1 6//1 12//1
f 4//7 13//7 5//7
f 5//7 13//7 10//7
f 5//7 10//7 9//7
