# Blender v2.83.2 OBJ File: ''
# www.blender.org
mtllib Object9.mtl
o Object9
v -0.250000 -0.250000 0.500000
v -0.250000 -0.750000 0.500000
v -0.250000 -0.250000 -0.500000
v -0.250000 -0.750000 -0.500000
v 0.250000 -0.250000 0.500000
v 0.250000 -0.250000 -0.500000
v 0.250000 -0.750000 0.500000
v 0.250000 -0.750000 -0.500000
v 0.500000 -0.750000 0.500000
v 0.500000 -0.750000 -0.500000
v 0.500000 0.000000 0.500000
v 0.500000 0.000000 -0.500000
v -0.250000 0.000000 0.500000
v -0.250000 0.000000 -0.500000
v -0.250000 0.250000 0.500000
v -0.250000 0.250000 -0.500000
v -0.246202 0.293412 0.500000
v -0.246202 0.293412 -0.500000
v -0.234923 0.335505 0.500000
v -0.234923 0.335505 -0.500000
v -0.216506 0.375000 0.500000
v -0.216506 0.375000 -0.500000
v -0.191511 0.410697 0.500000
v -0.191511 0.410697 -0.500000
v -0.160697 0.441511 0.500000
v -0.160697 0.441511 -0.500000
v -0.125000 0.466506 0.500000
v -0.125000 0.466506 -0.500000
v -0.085505 0.484923 0.500000
v -0.085505 0.484923 -0.500000
v -0.043412 0.496202 0.500000
v -0.043412 0.496202 -0.500000
v 0.000000 0.500000 0.500000
v 0.000000 0.500000 -0.500000
v 0.043412 0.496202 0.500000
v 0.043412 0.496202 -0.500000
v 0.085505 0.484923 0.500000
v 0.085505 0.484923 -0.500000
v 0.125000 0.466506 0.500000
v 0.125000 0.466506 -0.500000
v 0.160697 0.441511 0.500000
v 0.160697 0.441511 -0.500000
v 0.191511 0.410697 0.500000
v 0.191511 0.410697 -0.500000
v 0.216506 0.375000 0.500000
v 0.216506 0.375000 -0.500000
v 0.234923 0.335505 0.500000
v 0.234923 0.335505 -0.500000
v 0.246202 0.293412 0.500000
v 0.246202 0.293412 -0.500000
v 0.250000 0.250000 0.500000
v 0.250000 0.250000 -0.500000
v 0.500000 0.250000 0.500000
v 0.500000 0.250000 -0.500000
v 0.496057 0.312667 -0.500000
v 0.496057 0.312667 0.500000
v 0.484292 0.374345 -0.500000
v 0.484292 0.374345 0.500000
v 0.464888 0.434062 -0.500000
v 0.464888 0.434062 0.500000
v 0.438153 0.490877 -0.500000
v 0.438153 0.490877 0.500000
v 0.404509 0.543893 -0.500000
v 0.404509 0.543893 0.500000
v 0.364484 0.592274 -0.500000
v 0.364484 0.592274 0.500000
v 0.318712 0.635257 -0.500000
v 0.318712 0.635257 0.500000
v 0.267913 0.672164 -0.500000
v 0.267913 0.672164 0.500000
v 0.212890 0.702414 -0.500000
v 0.212890 0.702414 0.500000
v 0.154509 0.725528 -0.500000
v 0.154509 0.725528 0.500000
v 0.093691 0.741144 -0.500000
v 0.093691 0.741144 0.500000
v 0.031395 0.749013 -0.500000
v 0.031395 0.749013 0.500000
v -0.031395 0.749013 -0.500000
v -0.031395 0.749013 0.500000
v -0.093691 0.741144 -0.500000
v -0.093691 0.741144 0.500000
v -0.154508 0.725528 -0.500000
v -0.154508 0.725528 0.500000
v -0.212890 0.702414 -0.500000
v -0.212890 0.702414 0.500000
v -0.267913 0.672164 -0.500000
v -0.267913 0.672164 0.500000
v -0.318712 0.635257 -0.500000
v -0.318712 0.635257 0.500000
v -0.364484 0.592274 -0.500000
v -0.364484 0.592274 0.500000
v -0.404508 0.543893 -0.500000
v -0.404508 0.543893 0.500000
v -0.438153 0.490877 -0.500000
v -0.438153 0.490877 0.500000
v -0.464888 0.434062 -0.500000
v -0.464888 0.434062 0.500000
v -0.484292 0.374345 -0.500000
v -0.484292 0.374345 0.500000
v -0.496057 0.312667 -0.500000
v -0.496057 0.312667 0.500000
v -0.500000 0.250000 -0.500000
v -0.500000 0.250000 0.500000
v -0.500000 -0.750000 0.500000
v -0.500000 -0.750000 -0.500000
vn 1.0000 0.0000 0.0000
vn 0.0000 -1.0000 -0.0000
vn -1.0000 0.0000 0.0000
vn 0.0000 1.0000 0.0000
vn 0.9962 -0.0872 -0.0000
vn 0.9659 -0.2588 0.0000
vn 0.9063 -0.4226 0.0000
vn 0.8192 -0.5736 0.0000
vn 0.7071 -0.7071 0.0000
vn 0.5736 -0.8192 0.0000
vn 0.4226 -0.9063 0.0000
vn 0.2588 -0.9659 0.0000
vn 0.0872 -0.9962 0.0000
vn -0.0872 -0.9962 0.0000
vn -0.2588 -0.9659 0.0000
vn -0.4226 -0.9063 0.0000
vn -0.5736 -0.8192 0.0000
vn -0.7071 -0.7071 0.0000
vn -0.8192 -0.5736 0.0000
vn -0.9063 -0.4226 0.0000
vn -0.9659 -0.2588 0.0000
vn -0.9962 -0.0872 0.0000
vn 0.9980 0.0628 0.0000
vn 0.9823 0.1874 0.0000
vn 0.9511 0.3090 0.0000
vn 0.9048 0.4258 0.0000
vn 0.8443 0.5358 0.0000
vn 0.7705 0.6374 0.0000
vn 0.6845 0.7290 0.0000
vn 0.5878 0.8090 0.0000
vn 0.4818 0.8763 0.0000
vn 0.3681 0.9298 0.0000
vn 0.2487 0.9686 0.0000
vn 0.1253 0.9921 0.0000
vn -0.1253 0.9921 0.0000
vn -0.2487 0.9686 0.0000
vn -0.3681 0.9298 0.0000
vn -0.4818 0.8763 0.0000
vn -0.5878 0.8090 0.0000
vn -0.6845 0.7290 0.0000
vn -0.7705 0.6374 0.0000
vn -0.8443 0.5358 0.0000
vn -0.9048 0.4258 0.0000
vn -0.9511 0.3090 0.0000
vn -0.9823 0.1874 0.0000
vn -0.9980 0.0628 0.0000
vn 0.0000 0.0000 1.0000
vn 0.0000 0.0000 -1.0000
usemtl None
s off
f 1//1 2//1 3//1
f 3//1 2//1 4//1
f 5//2 1//2 6//2
f 6//2 1//2 3//2
f 7//3 5//3 8//3
f 8//3 5//3 6//3
f 9//2 7//2 10//2
f 10//2 7//2 8//2
f 11//1 9//1 12//1
f 12//1 9//1 10//1
f 13//4 11//4 14//4
f 14//4 11//4 12//4
f 15//1 13//1 16//1
f 16//1 13//1 14//1
f 15//5 16//5 17//5
f 17//5 16//5 18//5
f 17//6 18//6 19//6
f 19//6 18//6 20//6
f 19//7 20//7 21//7
f 21//7 20//7 22//7
f 21//8 22//8 23//8
f 23//8 22//8 24//8
f 23//9 24//9 25//9
f 25//9 24//9 26//9
f 25//10 26//10 27//10
f 27//10 26//10 28//10
f 27//11 28//11 29//11
f 29//11 28//11 30//11
f 29//12 30//12 31//12
f 31//12 30//12 32//12
f 31//13 32//13 33//13
f 33//13 32//13 34//13
f 33//14 34//14 35//14
f 35//14 34//14 36//14
f 35//15 36//15 37//15
f 37//15 36//15 38//15
f 37//16 38//16 39//16
f 39//16 38//16 40//16
f 39//17 40//17 41//17
f 41//17 40//17 42//17
f 41//18 42//18 43//18
f 43//18 42//18 44//18
f 43//19 44//19 45//19
f 45//19 44//19 46//19
f 45//20 46//20 47//20
f 47//20 46//20 48//20
f 47//21 48//21 49//21
f 49//21 48//21 50//21
f 49//22 50//22 51//22
f 51//22 50//22 52//22
f 53//2 51//2 54//2
f 54//2 51//2 52//2
f 53//23 54//23 55//23
f 53//23 55//23 56//23
f 56//24 55//24 57//24
f 56//24 57//24 58//24
f 58//25 57//25 59//25
f 58//25 59//25 60//25
f 60//26 59//26 61//26
f 60//26 61//26 62//26
f 62//27 61//27 63//27
f 62//27 63//27 64//27
f 64//28 63//28 65//28
f 64//28 65//28 66//28
f 66//29 65//29 67//29
f 66//29 67//29 68//29
f 68//30 67//30 69//30
f 68//30 69//30 70//30
f 70//31 69//31 71//31
f 70//31 71//31 72//31
f 72//32 71//32 73//32
f 72//32 73//32 74//32
f 74//33 73//33 75//33
f 74//33 75//33 76//33
f 76//34 75//34 77//34
f 76//34 77//34 78//34
f 78//4 77//4 79//4
f 78//4 79//4 80//4
f 80//35 79//35 81//35
f 80//35 81//35 82//35
f 82//36 81//36 83//36
f 82//36 83//36 84//36
f 84//37 83//37 85//37
f 84//37 85//37 86//37
f 86//38 85//38 87//38
f 86//38 87//38 88//38
f 88//39 87//39 89//39
f 88//39 89//39 90//39
f 90//40 89//40 91//40
f 90//40 91//40 92//40
f 92//41 91//41 93//41
f 92//41 93//41 94//41
f 94//42 93//42 95//42
f 94//42 95//42 96//42
f 96//43 95//43 97//43
f 96//43 97//43 98//43
f 98//44 97//44 99//44
f 98//44 99//44 100//44
f 100//45 99//45 101//45
f 100//45 101//45 102//45
f 102//46 101//46 103//46
f 102//46 103//46 104//46
f 105//3 104//3 106//3
f 106//3 104//3 103//3
f 2//2 105//2 4//2
f 4//2 105//2 106//2
f 105//47 2//47 104//47
f 104//47 2//47 1//47
f 49//47 51//47 53//47
f 19//47 100//47 17//47
f 17//47 100//47 102//47
f 17//47 102//47 15//47
f 15//47 102//47 104//47
f 15//47 104//47 13//47
f 13//47 104//47 1//47
f 13//47 1//47 11//47
f 11//47 1//47 5//47
f 11//47 5//47 9//47
f 9//47 5//47 7//47
f 29//47 86//47 27//47
f 27//47 86//47 88//47
f 27//47 88//47 25//47
f 25//47 88//47 90//47
f 25//47 90//47 23//47
f 35//47 78//47 33//47
f 33//47 78//47 80//47
f 33//47 80//47 31//47
f 31//47 80//47 82//47
f 31//47 82//47 29//47
f 29//47 82//47 84//47
f 29//47 84//47 86//47
f 39//47 72//47 37//47
f 37//47 72//47 74//47
f 37//47 74//47 35//47
f 35//47 74//47 76//47
f 35//47 76//47 78//47
f 45//47 64//47 43//47
f 43//47 64//47 66//47
f 43//47 66//47 41//47
f 41//47 66//47 68//47
f 41//47 68//47 39//47
f 39//47 68//47 70//47
f 39//47 70//47 72//47
f 90//47 92//47 23//47
f 23//47 92//47 94//47
f 23//47 94//47 21//47
f 21//47 94//47 96//47
f 21//47 96//47 19//47
f 19//47 96//47 98//47
f 19//47 98//47 100//47
f 53//47 56//47 49//47
f 49//47 56//47 58//47
f 49//47 58//47 47//47
f 47//47 58//47 60//47
f 47//47 60//47 45//47
f 45//47 60//47 62//47
f 45//47 62//47 64//47
f 3//48 4//48 106//48
f 10//48 8//48 12//48
f 12//48 8//48 6//48
f 12//48 6//48 14//48
f 54//48 52//48 55//48
f 55//48 52//48 50//48
f 55//48 50//48 57//48
f 57//48 50//48 48//48
f 38//48 71//48 40//48
f 40//48 71//48 69//48
f 40//48 69//48 42//48
f 42//48 69//48 67//48
f 42//48 67//48 44//48
f 34//48 77//48 36//48
f 36//48 77//48 75//48
f 36//48 75//48 38//48
f 38//48 75//48 73//48
f 38//48 73//48 71//48
f 28//48 85//48 30//48
f 30//48 85//48 83//48
f 30//48 83//48 32//48
f 32//48 83//48 81//48
f 32//48 81//48 34//48
f 34//48 81//48 79//48
f 34//48 79//48 77//48
f 22//48 93//48 24//48
f 24//48 93//48 91//48
f 24//48 91//48 26//48
f 26//48 91//48 89//48
f 26//48 89//48 28//48
f 28//48 89//48 87//48
f 28//48 87//48 85//48
f 18//48 99//48 20//48
f 20//48 99//48 97//48
f 20//48 97//48 22//48
f 22//48 97//48 95//48
f 22//48 95//48 93//48
f 6//48 3//48 14//48
f 14//48 3//48 106//48
f 14//48 106//48 16//48
f 16//48 106//48 103//48
f 16//48 103//48 18//48
f 18//48 103//48 101//48
f 18//48 101//48 99//48
f 67//48 65//48 44//48
f 44//48 65//48 63//48
f 44//48 63//48 46//48
f 46//48 63//48 61//48
f 46//48 61//48 48//48
f 48//48 61//48 59//48
f 48//48 59//48 57//48
