# Blender v2.83.2 OBJ File: ''
# www.blender.org
mtllib Object8.mtl
o Object8
v 0.500000 0.000000 -0.500000
v 0.000000 0.500000 -0.500000
v 0.087748 0.412252 0.000000
v 0.000000 0.500000 0.500000
v 0.393934 0.106066 0.250000
v 0.500000 -0.000000 0.500000
v 0.393934 0.106066 -0.250000
v -0.500000 -0.500000 0.500000
v -0.500000 0.500000 0.500000
v -0.500000 -0.500000 -0.500000
v -0.500000 0.500000 -0.500000
v 0.500000 -0.500000 0.500000
v 0.500000 -0.500000 -0.500000
v 0.229169 0.553674 0.000000
v 0.535355 0.247487 -0.250000
v 0.535355 0.247487 0.250000
vn 0.7071 0.7071 0.0000
vn -1.0000 0.0000 0.0000
vn 0.0000 -1.0000 -0.0000
vn 1.0000 0.0000 0.0000
vn 0.0000 1.0000 0.0000
vn 0.0000 0.0000 1.0000
vn 0.0000 0.0000 -1.0000
vn -0.3536 0.3536 -0.8660
vn -0.3536 0.3536 0.8660
vn 0.7071 -0.7071 -0.0000
usemtl None
s off
f 1//1 2//1 3//1
f 3//1 2//1 4//1
f 3//1 4//1 5//1
f 5//1 4//1 6//1
f 5//1 6//1 7//1
f 7//1 6//1 1//1
f 7//1 1//1 3//1
f 8//2 9//2 10//2
f 10//2 9//2 11//2
f 12//3 8//3 13//3
f 13//3 8//3 10//3
f 6//4 12//4 1//4
f 1//4 12//4 13//4
f 9//5 4//5 11//5
f 11//5 4//5 2//5
f 4//6 9//6 6//6
f 6//6 9//6 8//6
f 6//6 8//6 12//6
f 1//7 13//7 2//7
f 2//7 13//7 10//7
f 2//7 10//7 11//7
f 14//8 15//8 3//8
f 3//8 15//8 7//8
f 16//9 14//9 5//9
f 5//9 14//9 3//9
f 15//10 16//10 7//10
f 7//10 16//10 5//10
f 14//1 16//1 15//1
