# Blender v2.83.2 OBJ File: ''
# www.blender.org
mtllib Object2.mtl
o Object2
v 0.500000 0.166667 0.500000
v -0.500000 0.166667 0.500000
v 0.500000 -0.500000 0.500000
v -0.500000 -0.500000 0.500000
v 0.500000 0.166667 -0.500000
v 0.500000 -0.500000 -0.500000
v -0.500000 -0.500000 -0.500000
v -0.500000 0.166667 -0.500000
v 0.000000 0.166667 -0.500000
v 0.333333 0.166667 -0.500000
v 0.333333 0.500000 -0.500000
v 0.000000 0.500000 -0.500000
v 0.000000 0.166667 0.000000
v 0.333333 0.166667 -0.000000
v 0.333333 0.500000 -0.000000
v 0.000000 0.500000 0.000000
vn 0.0000 0.0000 1.0000
vn 1.0000 -0.0000 0.0000
vn 0.0000 0.0000 -1.0000
vn -1.0000 0.0000 0.0000
vn 0.0000 1.0000 0.0000
vn -0.0000 -1.0000 0.0000
usemtl None
s off
f 1//1 2//1 3//1
f 3//1 2//1 4//1
f 5//2 1//2 6//2
f 6//2 1//2 3//2
f 7//3 8//3 6//3
f 6//3 8//3 9//3
f 5//3 6//3 10//3
f 10//3 6//3 9//3
f 10//3 9//3 11//3
f 11//3 9//3 12//3
f 2//4 8//4 4//4
f 4//4 8//4 7//4
f 9//5 8//5 13//5
f 13//5 8//5 2//5
f 13//5 2//5 14//5
f 14//5 2//5 1//5
f 14//5 1//5 10//5
f 10//5 1//5 5//5
f 7//6 6//6 4//6
f 4//6 6//6 3//6
f 15//1 16//1 14//1
f 14//1 16//1 13//1
f 11//2 15//2 10//2
f 10//2 15//2 14//2
f 16//4 12//4 13//4
f 13//4 12//4 9//4
f 11//5 12//5 15//5
f 15//5 12//5 16//5
