# Blender v2.83.2 OBJ File: ''
# www.blender.org
mtllib Technique_B_Object1.mtl
o Technique_B_Object1
v -0.400000 -0.350000 -0.300000
v -0.108253 0.037500 -0.300000
v -0.095756 0.019652 -0.300000
v -0.117462 0.057248 -0.300000
v -0.400000 0.100000 -0.300000
v -0.123101 0.078294 -0.300000
v -0.080348 0.004244 -0.300000
v -0.062500 -0.008253 -0.300000
v -0.042753 -0.017462 -0.300000
v 0.080348 0.004244 -0.300000
v 0.400000 -0.350000 -0.300000
v 0.062500 -0.008253 -0.300000
v 0.042753 -0.017462 -0.300000
v -0.095756 0.180348 -0.300000
v -0.274497 0.390949 -0.300000
v -0.080348 0.195756 -0.300000
v -0.238863 0.420849 -0.300000
v -0.062500 0.208253 -0.300000
v -0.021706 -0.023101 -0.300000
v -0.000000 -0.025000 -0.300000
v 0.021706 -0.023101 -0.300000
v -0.200000 0.446410 -0.300000
v -0.158432 0.467286 -0.300000
v -0.042753 0.217462 -0.300000
v -0.114721 0.483196 -0.300000
v -0.021706 0.223101 -0.300000
v -0.069459 0.493923 -0.300000
v -0.000000 0.225000 -0.300000
v -0.108253 0.162500 -0.300000
v -0.334195 0.319804 -0.300000
v -0.306418 0.357115 -0.300000
v -0.125000 0.100000 -0.300000
v -0.397295 0.146437 -0.300000
v -0.123101 0.121706 -0.300000
v -0.389218 0.192246 -0.300000
v -0.117462 0.142753 -0.300000
v -0.375877 0.236808 -0.300000
v -0.357453 0.279520 -0.300000
v 0.095756 0.180348 -0.300000
v 0.334195 0.319804 -0.300000
v 0.108253 0.162500 -0.300000
v 0.357453 0.279520 -0.300000
v 0.117462 0.142753 -0.300000
v 0.375877 0.236808 -0.300000
v 0.123101 0.121706 -0.300000
v 0.062500 0.208253 -0.300000
v 0.238863 0.420849 -0.300000
v 0.080348 0.195756 -0.300000
v 0.274497 0.390949 -0.300000
v 0.306418 0.357115 -0.300000
v 0.042753 0.217462 -0.300000
v 0.158432 0.467286 -0.300000
v 0.200000 0.446410 -0.300000
v 0.117462 0.057248 -0.300000
v 0.400000 0.100000 -0.300000
v 0.108253 0.037500 -0.300000
v 0.095756 0.019652 -0.300000
v 0.123101 0.078294 -0.300000
v 0.125000 0.100000 -0.300000
v 0.397295 0.146437 -0.300000
v 0.389218 0.192246 -0.300000
v -0.023258 0.499323 -0.300000
v 0.023258 0.499323 -0.300000
v 0.021706 0.223101 -0.300000
v 0.069459 0.493923 -0.300000
v 0.114721 0.483196 -0.300000
v -0.062500 0.208253 -0.150000
v -0.238863 0.420849 -0.150000
v -0.080348 0.195756 -0.150000
v -0.274497 0.390949 -0.150000
v -0.095756 0.180348 -0.150000
v 0.080348 0.195756 -0.150000
v 0.095756 0.180348 -0.150000
v 0.306418 0.357115 -0.150000
v 0.108253 0.037500 -0.150000
v 0.095756 0.019652 -0.150000
v 0.400000 -0.250000 -0.150000
v -0.042753 0.217462 -0.150000
v -0.158432 0.467286 -0.150000
v -0.200000 0.446410 -0.150000
v 0.021706 0.223101 -0.150000
v 0.023258 0.499323 -0.150000
v -0.000000 0.225000 -0.150000
v -0.023258 0.499323 -0.150000
v -0.021706 0.223101 -0.150000
v -0.069459 0.493923 -0.150000
v -0.114721 0.483196 -0.150000
v 0.062500 0.208253 -0.150000
v 0.158432 0.467286 -0.150000
v 0.042753 0.217462 -0.150000
v 0.114721 0.483196 -0.150000
v 0.069459 0.493923 -0.150000
v 0.334195 0.319804 -0.150000
v 0.108253 0.162500 -0.150000
v 0.357453 0.279520 -0.150000
v 0.042753 -0.017462 -0.150000
v 0.021706 -0.023101 -0.150000
v -0.000000 -0.025000 -0.150000
v -0.400000 -0.250000 -0.150000
v -0.021706 -0.023101 -0.150000
v -0.042753 -0.017462 -0.150000
v -0.062500 -0.008253 -0.150000
v -0.080348 0.004244 -0.150000
v -0.095756 0.019652 -0.150000
v -0.108253 0.037500 -0.150000
v -0.117462 0.057248 -0.150000
v -0.400000 0.100000 -0.150000
v -0.123101 0.078294 -0.150000
v -0.125000 0.100000 -0.150000
v -0.397295 0.146437 -0.150000
v -0.123101 0.121706 -0.150000
v -0.306418 0.357115 -0.150000
v -0.334195 0.319804 -0.150000
v -0.108253 0.162500 -0.150000
v -0.357453 0.279520 -0.150000
v -0.117462 0.142753 -0.150000
v -0.375877 0.236808 -0.150000
v -0.389218 0.192246 -0.150000
v 0.274497 0.390949 -0.150000
v 0.238863 0.420849 -0.150000
v 0.200000 0.446410 -0.150000
v 0.080348 0.004244 -0.150000
v 0.062500 -0.008253 -0.150000
v 0.375877 0.236808 -0.150000
v 0.117462 0.142753 -0.150000
v 0.389218 0.192246 -0.150000
v 0.123101 0.121706 -0.150000
v 0.397295 0.146437 -0.150000
v 0.125000 0.100000 -0.150000
v 0.400000 0.100000 -0.150000
v 0.123101 0.078294 -0.150000
v 0.117462 0.057248 -0.150000
v 0.200000 -0.500000 0.100000
v -0.200000 -0.500000 0.100000
v -0.400000 -0.500000 -0.150000
v 0.400000 -0.500000 -0.150000
v 0.400000 -0.500000 0.100000
v 0.397538 -0.500000 0.131287
v 0.390211 -0.500000 0.161803
v 0.378201 -0.500000 0.190798
v 0.361803 -0.500000 0.217557
v -0.390211 -0.500000 0.161803
v -0.397538 -0.500000 0.131287
v -0.400000 -0.500000 0.100000
v 0.341421 -0.500000 0.241421
v 0.317557 -0.500000 0.261803
v 0.290798 -0.500000 0.278201
v 0.261803 -0.500000 0.290211
v 0.231287 -0.500000 0.297538
v 0.200000 -0.500000 0.300000
v -0.200000 -0.500000 0.300000
v -0.231287 -0.500000 0.297538
v -0.261803 -0.500000 0.290211
v -0.290798 -0.500000 0.278201
v -0.317557 -0.500000 0.261803
v -0.341421 -0.500000 0.241421
v -0.361803 -0.500000 0.217557
v -0.378201 -0.500000 0.190798
v -0.231287 -0.350000 0.297538
v -0.200000 -0.350000 0.300000
v -0.200000 -0.350000 0.100000
v -0.400000 -0.350000 -0.050000
v 0.400000 -0.350000 -0.050000
v 0.200000 -0.350000 0.100000
v 0.400000 -0.350000 0.100000
v -0.261803 -0.350000 0.290211
v -0.400000 -0.350000 0.100000
v -0.397538 -0.350000 0.131287
v -0.390211 -0.350000 0.161803
v -0.378201 -0.350000 0.190798
v -0.361803 -0.350000 0.217557
v -0.341421 -0.350000 0.241421
v -0.317557 -0.350000 0.261803
v -0.290798 -0.350000 0.278201
v 0.290798 -0.350000 0.278201
v 0.317557 -0.350000 0.261803
v 0.341421 -0.350000 0.241421
v 0.361803 -0.350000 0.217557
v 0.378201 -0.350000 0.190798
v 0.200000 -0.350000 0.300000
v 0.231287 -0.350000 0.297538
v 0.261803 -0.350000 0.290211
v 0.390211 -0.350000 0.161803
v 0.397538 -0.350000 0.131287
v -0.400000 -0.326604 -0.114279
v -0.400000 -0.314279 -0.126604
v -0.400000 -0.446418 -0.264907
v -0.400000 -0.425000 -0.279904
v -0.400000 -0.300000 -0.136603
v -0.400000 -0.401303 -0.290954
v -0.400000 -0.376047 -0.297721
v -0.400000 -0.284202 -0.143969
v -0.400000 -0.267365 -0.148481
v -0.400000 -0.348481 -0.067365
v -0.400000 -0.343969 -0.084202
v -0.400000 -0.497721 -0.176047
v -0.400000 -0.336603 -0.100000
v -0.400000 -0.464907 -0.246418
v -0.400000 -0.479904 -0.225000
v -0.400000 -0.490954 -0.201303
v 0.400000 -0.267365 -0.148481
v 0.400000 -0.284202 -0.143969
v 0.400000 -0.376047 -0.297721
v 0.400000 -0.300000 -0.136603
v 0.400000 -0.401303 -0.290954
v 0.400000 -0.425000 -0.279904
v 0.400000 -0.314279 -0.126604
v 0.400000 -0.446418 -0.264907
v 0.400000 -0.464907 -0.246418
v 0.400000 -0.326604 -0.114279
v 0.400000 -0.479904 -0.225000
v 0.400000 -0.336603 -0.100000
v 0.400000 -0.490954 -0.201303
v 0.400000 -0.497721 -0.176047
v 0.400000 -0.343969 -0.084202
v 0.400000 -0.348481 -0.067365
vn 0.0000 0.0000 -1.0000
vn 0.0000 -0.0000 1.0000
vn 0.0000 -1.0000 0.0000
vn -0.0000 1.0000 0.0000
vn -1.0000 0.0000 0.0000
vn 1.0000 0.0000 0.0000
vn -0.9983 0.0581 0.0000
vn -0.9848 0.1736 0.0000
vn -0.9580 0.2868 0.0000
vn -0.9182 0.3961 0.0000
vn -0.8660 0.5000 0.0000
vn -0.8021 0.5972 0.0000
vn -0.7274 0.6862 0.0000
vn -0.6428 0.7660 0.0000
vn -0.5495 0.8355 0.0000
vn -0.4488 0.8936 0.0000
vn -0.3420 0.9397 0.0000
vn -0.2306 0.9730 0.0000
vn -0.1161 0.9932 0.0000
vn 0.1161 0.9932 0.0000
vn 0.2306 0.9730 0.0000
vn 0.3420 0.9397 0.0000
vn 0.4488 0.8936 0.0000
vn 0.5495 0.8355 0.0000
vn 0.6428 0.7660 0.0000
vn 0.7274 0.6862 0.0000
vn 0.8021 0.5972 0.0000
vn 0.8660 0.5000 0.0000
vn 0.9182 0.3961 0.0000
vn 0.9580 0.2868 0.0000
vn 0.9848 0.1736 0.0000
vn 0.9983 0.0581 0.0000
vn -0.9962 -0.0872 0.0000
vn -0.9659 -0.2588 0.0000
vn -0.9063 -0.4226 0.0000
vn -0.8192 -0.5736 0.0000
vn -0.7071 -0.7071 0.0000
vn -0.5736 -0.8192 0.0000
vn -0.4226 -0.9063 0.0000
vn -0.2588 -0.9659 0.0000
vn -0.0872 -0.9962 0.0000
vn 0.0872 -0.9962 0.0000
vn 0.2588 -0.9659 0.0000
vn 0.4226 -0.9063 0.0000
vn 0.5736 -0.8192 0.0000
vn 0.7071 -0.7071 0.0000
vn 0.8192 -0.5736 0.0000
vn 0.9063 -0.4226 0.0000
vn 0.9659 -0.2588 0.0000
vn 0.9962 -0.0872 0.0000
vn 0.9962 0.0872 0.0000
vn 0.9659 0.2588 0.0000
vn 0.9063 0.4226 0.0000
vn 0.8192 0.5736 0.0000
vn 0.7071 0.7071 0.0000
vn 0.5736 0.8192 0.0000
vn 0.4226 0.9063 0.0000
vn 0.2588 0.9659 0.0000
vn 0.0872 0.9962 0.0000
vn -0.0872 0.9962 0.0000
vn -0.2588 0.9659 0.0000
vn -0.4226 0.9063 0.0000
vn -0.5736 0.8192 0.0000
vn -0.7071 0.7071 0.0000
vn -0.8192 0.5736 0.0000
vn -0.9063 0.4226 0.0000
vn -0.9659 0.2588 0.0000
vn -0.9962 0.0872 0.0000
vn 0.9969 0.0000 0.0785
vn 0.9724 0.0000 0.2334
vn 0.9239 0.0000 0.3827
vn 0.8526 0.0000 0.5225
vn 0.7604 0.0000 0.6494
vn 0.6494 0.0000 0.7604
vn 0.5225 0.0000 0.8526
vn 0.3827 0.0000 0.9239
vn 0.2334 0.0000 0.9724
vn 0.0785 0.0000 0.9969
vn -0.9969 0.0000 0.0785
vn -0.9724 0.0000 0.2334
vn -0.9239 0.0000 0.3827
vn -0.8526 0.0000 0.5225
vn -0.7604 0.0000 0.6494
vn -0.6494 0.0000 0.7604
vn -0.5225 0.0000 0.8526
vn -0.3827 0.0000 0.9239
vn -0.2334 0.0000 0.9724
vn -0.0785 0.0000 0.9969
vn 0.0000 -0.0872 -0.9962
vn 0.0000 -0.2588 -0.9659
vn 0.0000 -0.4226 -0.9063
vn 0.0000 -0.5736 -0.8192
vn 0.0000 -0.7071 -0.7071
vn 0.0000 -0.8192 -0.5736
vn 0.0000 -0.9063 -0.4226
vn 0.0000 -0.9659 -0.2588
vn 0.0000 -0.9962 -0.0872
vn 0.0000 0.0872 0.9962
vn 0.0000 0.2588 0.9659
vn 0.0000 0.4226 0.9063
vn 0.0000 0.5736 0.8192
vn 0.0000 0.7071 0.7071
vn 0.0000 0.8192 0.5736
vn 0.0000 0.9063 0.4226
vn 0.0000 0.9659 0.2588
vn 0.0000 0.9962 0.0872
usemtl None
s off
f 1//1 2//1 3//1
f 2//1 1//1 4//1
f 4//1 1//1 5//1
f 4//1 5//1 6//1
f 3//1 7//1 1//1
f 1//1 7//1 8//1
f 1//1 8//1 9//1
f 10//1 11//1 12//1
f 12//1 11//1 13//1
f 14//1 15//1 16//1
f 16//1 15//1 17//1
f 16//1 17//1 18//1
f 9//1 19//1 1//1
f 1//1 19//1 20//1
f 1//1 20//1 11//1
f 11//1 20//1 21//1
f 11//1 21//1 13//1
f 17//1 22//1 18//1
f 18//1 22//1 23//1
f 18//1 23//1 24//1
f 24//1 23//1 25//1
f 24//1 25//1 26//1
f 26//1 25//1 27//1
f 26//1 27//1 28//1
f 29//1 30//1 14//1
f 14//1 30//1 31//1
f 14//1 31//1 15//1
f 6//1 5//1 32//1
f 32//1 5//1 33//1
f 32//1 33//1 34//1
f 34//1 33//1 35//1
f 34//1 35//1 36//1
f 36//1 35//1 37//1
f 36//1 37//1 29//1
f 29//1 37//1 38//1
f 29//1 38//1 30//1
f 39//1 40//1 41//1
f 41//1 40//1 42//1
f 41//1 42//1 43//1
f 43//1 42//1 44//1
f 43//1 44//1 45//1
f 46//1 47//1 48//1
f 48//1 47//1 49//1
f 48//1 49//1 39//1
f 39//1 49//1 50//1
f 39//1 50//1 40//1
f 51//1 52//1 46//1
f 46//1 52//1 53//1
f 46//1 53//1 47//1
f 54//1 55//1 56//1
f 56//1 55//1 11//1
f 56//1 11//1 57//1
f 57//1 11//1 10//1
f 54//1 58//1 55//1
f 55//1 58//1 59//1
f 55//1 59//1 60//1
f 60//1 59//1 45//1
f 60//1 45//1 61//1
f 61//1 45//1 44//1
f 27//1 62//1 28//1
f 28//1 62//1 63//1
f 28//1 63//1 64//1
f 64//1 63//1 65//1
f 64//1 65//1 51//1
f 51//1 65//1 66//1
f 51//1 66//1 52//1
f 67//2 68//2 69//2
f 69//2 68//2 70//2
f 69//2 70//2 71//2
f 72//2 73//2 74//2
f 75//2 76//2 77//2
f 78//2 79//2 67//2
f 67//2 79//2 80//2
f 67//2 80//2 68//2
f 81//2 82//2 83//2
f 83//2 82//2 84//2
f 83//2 84//2 85//2
f 85//2 84//2 86//2
f 85//2 86//2 78//2
f 78//2 86//2 87//2
f 78//2 87//2 79//2
f 88//2 89//2 90//2
f 90//2 89//2 91//2
f 90//2 91//2 81//2
f 81//2 91//2 92//2
f 81//2 92//2 82//2
f 74//2 73//2 93//2
f 93//2 73//2 94//2
f 93//2 94//2 95//2
f 96//2 97//2 77//2
f 77//2 97//2 98//2
f 77//2 98//2 99//2
f 99//2 98//2 100//2
f 99//2 100//2 101//2
f 101//2 102//2 99//2
f 99//2 102//2 103//2
f 99//2 103//2 104//2
f 104//2 105//2 99//2
f 99//2 105//2 106//2
f 99//2 106//2 107//2
f 106//2 108//2 107//2
f 107//2 108//2 109//2
f 107//2 109//2 110//2
f 110//2 109//2 111//2
f 70//2 112//2 71//2
f 71//2 112//2 113//2
f 71//2 113//2 114//2
f 114//2 113//2 115//2
f 114//2 115//2 116//2
f 116//2 115//2 117//2
f 116//2 117//2 111//2
f 111//2 117//2 118//2
f 111//2 118//2 110//2
f 74//2 119//2 72//2
f 72//2 119//2 120//2
f 72//2 120//2 88//2
f 88//2 120//2 121//2
f 88//2 121//2 89//2
f 76//2 122//2 77//2
f 77//2 122//2 123//2
f 77//2 123//2 96//2
f 95//2 94//2 124//2
f 124//2 94//2 125//2
f 124//2 125//2 126//2
f 126//2 125//2 127//2
f 126//2 127//2 128//2
f 128//2 127//2 129//2
f 128//2 129//2 130//2
f 130//2 129//2 131//2
f 130//2 131//2 77//2
f 77//2 131//2 132//2
f 77//2 132//2 75//2
f 133//3 134//3 135//3
f 135//3 136//3 133//3
f 133//3 136//3 137//3
f 133//3 137//3 138//3
f 138//3 139//3 133//3
f 133//3 139//3 140//3
f 133//3 140//3 141//3
f 142//3 143//3 134//3
f 134//3 143//3 144//3
f 134//3 144//3 135//3
f 141//3 145//3 133//3
f 133//3 145//3 146//3
f 133//3 146//3 147//3
f 147//3 148//3 133//3
f 133//3 148//3 149//3
f 133//3 149//3 150//3
f 151//3 152//3 134//3
f 134//3 152//3 153//3
f 153//3 154//3 134//3
f 134//3 154//3 155//3
f 134//3 155//3 156//3
f 156//3 157//3 134//3
f 134//3 157//3 158//3
f 134//3 158//3 142//3
f 159//4 160//4 161//4
f 162//4 161//4 163//4
f 163//4 161//4 164//4
f 163//4 164//4 165//4
f 159//4 161//4 166//4
f 162//4 167//4 161//4
f 161//4 167//4 168//4
f 161//4 168//4 169//4
f 169//4 170//4 161//4
f 161//4 170//4 171//4
f 161//4 171//4 172//4
f 172//4 173//4 161//4
f 161//4 173//4 174//4
f 161//4 174//4 166//4
f 164//4 175//4 176//4
f 176//4 177//4 164//4
f 164//4 177//4 178//4
f 164//4 178//4 179//4
f 180//4 181//4 164//4
f 164//4 181//4 182//4
f 164//4 182//4 175//4
f 179//4 183//4 164//4
f 164//4 183//4 184//4
f 164//4 184//4 165//4
f 144//5 167//5 135//5
f 135//5 167//5 162//5
f 185//5 186//5 187//5
f 187//5 186//5 188//5
f 188//5 186//5 189//5
f 188//5 189//5 190//5
f 190//5 189//5 191//5
f 191//5 189//5 192//5
f 191//5 192//5 1//5
f 107//5 5//5 99//5
f 99//5 5//5 1//5
f 99//5 1//5 193//5
f 193//5 1//5 192//5
f 162//5 194//5 135//5
f 135//5 194//5 195//5
f 135//5 195//5 196//5
f 196//5 195//5 197//5
f 187//5 198//5 185//5
f 185//5 198//5 199//5
f 185//5 199//5 197//5
f 197//5 199//5 200//5
f 197//5 200//5 196//5
f 165//6 137//6 163//6
f 163//6 137//6 136//6
f 55//6 130//6 11//6
f 11//6 130//6 77//6
f 77//6 201//6 11//6
f 11//6 201//6 202//6
f 11//6 202//6 203//6
f 203//6 202//6 204//6
f 203//6 204//6 205//6
f 205//6 204//6 206//6
f 206//6 204//6 207//6
f 206//6 207//6 208//6
f 208//6 207//6 209//6
f 209//6 207//6 210//6
f 209//6 210//6 211//6
f 211//6 210//6 212//6
f 211//6 212//6 213//6
f 213//6 212//6 214//6
f 214//6 212//6 215//6
f 214//6 215//6 136//6
f 136//6 215//6 216//6
f 136//6 216//6 163//6
f 5//7 107//7 110//7
f 5//7 110//7 33//7
f 33//8 110//8 118//8
f 33//8 118//8 35//8
f 35//9 118//9 117//9
f 35//9 117//9 37//9
f 37//10 117//10 115//10
f 37//10 115//10 38//10
f 38//11 115//11 113//11
f 38//11 113//11 30//11
f 30//12 113//12 112//12
f 30//12 112//12 31//12
f 31//13 112//13 70//13
f 31//13 70//13 15//13
f 15//14 70//14 68//14
f 15//14 68//14 17//14
f 17//15 68//15 80//15
f 17//15 80//15 22//15
f 22//16 80//16 79//16
f 22//16 79//16 23//16
f 23//17 79//17 87//17
f 23//17 87//17 25//17
f 25//18 87//18 86//18
f 25//18 86//18 27//18
f 27//19 86//19 84//19
f 27//19 84//19 62//19
f 62//4 84//4 82//4
f 62//4 82//4 63//4
f 63//20 82//20 92//20
f 63//20 92//20 65//20
f 65//21 92//21 91//21
f 65//21 91//21 66//21
f 66//22 91//22 89//22
f 66//22 89//22 52//22
f 52//23 89//23 121//23
f 52//23 121//23 53//23
f 53//24 121//24 120//24
f 53//24 120//24 47//24
f 47//25 120//25 119//25
f 47//25 119//25 49//25
f 49//26 119//26 74//26
f 49//26 74//26 50//26
f 50//27 74//27 93//27
f 50//27 93//27 40//27
f 40//28 93//28 95//28
f 40//28 95//28 42//28
f 42//29 95//29 124//29
f 42//29 124//29 44//29
f 44//30 124//30 126//30
f 44//30 126//30 61//30
f 61//31 126//31 128//31
f 61//31 128//31 60//31
f 60//32 128//32 130//32
f 60//32 130//32 55//32
f 59//33 129//33 45//33
f 45//33 129//33 127//33
f 45//34 127//34 43//34
f 43//34 127//34 125//34
f 43//35 125//35 41//35
f 41//35 125//35 94//35
f 41//36 94//36 39//36
f 39//36 94//36 73//36
f 39//37 73//37 48//37
f 48//37 73//37 72//37
f 48//38 72//38 46//38
f 46//38 72//38 88//38
f 46//39 88//39 51//39
f 51//39 88//39 90//39
f 51//40 90//40 64//40
f 64//40 90//40 81//40
f 64//41 81//41 28//41
f 28//41 81//41 83//41
f 28//42 83//42 26//42
f 26//42 83//42 85//42
f 26//43 85//43 24//43
f 24//43 85//43 78//43
f 24//44 78//44 18//44
f 18//44 78//44 67//44
f 18//45 67//45 16//45
f 16//45 67//45 69//45
f 16//46 69//46 14//46
f 14//46 69//46 71//46
f 14//47 71//47 29//47
f 29//47 71//47 114//47
f 29//48 114//48 36//48
f 36//48 114//48 116//48
f 36//49 116//49 34//49
f 34//49 116//49 111//49
f 34//50 111//50 32//50
f 32//50 111//50 109//50
f 32//51 109//51 6//51
f 6//51 109//51 108//51
f 6//52 108//52 4//52
f 4//52 108//52 106//52
f 4//53 106//53 2//53
f 2//53 106//53 105//53
f 2//54 105//54 3//54
f 3//54 105//54 104//54
f 3//55 104//55 7//55
f 7//55 104//55 103//55
f 7//56 103//56 8//56
f 8//56 103//56 102//56
f 8//57 102//57 9//57
f 9//57 102//57 101//57
f 9//58 101//58 19//58
f 19//58 101//58 100//58
f 19//59 100//59 20//59
f 20//59 100//59 98//59
f 20//60 98//60 21//60
f 21//60 98//60 97//60
f 21//61 97//61 13//61
f 13//61 97//61 96//61
f 13//62 96//62 12//62
f 12//62 96//62 123//62
f 12//63 123//63 10//63
f 10//63 123//63 122//63
f 10//64 122//64 57//64
f 57//64 122//64 76//64
f 57//65 76//65 56//65
f 56//65 76//65 75//65
f 56//66 75//66 54//66
f 54//66 75//66 132//66
f 54//67 132//67 58//67
f 58//67 132//67 131//67
f 58//68 131//68 59//68
f 59//68 131//68 129//68
f 137//69 165//69 184//69
f 137//69 184//69 138//69
f 138//70 184//70 183//70
f 138//70 183//70 139//70
f 139//71 183//71 179//71
f 139//71 179//71 140//71
f 140//72 179//72 178//72
f 140//72 178//72 141//72
f 141//73 178//73 177//73
f 141//73 177//73 145//73
f 145//74 177//74 176//74
f 145//74 176//74 146//74
f 146//75 176//75 175//75
f 146//75 175//75 147//75
f 147//76 175//76 182//76
f 147//76 182//76 148//76
f 148//77 182//77 181//77
f 148//77 181//77 149//77
f 149//78 181//78 180//78
f 149//78 180//78 150//78
f 167//79 144//79 143//79
f 167//79 143//79 168//79
f 168//80 143//80 142//80
f 168//80 142//80 169//80
f 169//81 142//81 158//81
f 169//81 158//81 170//81
f 170//82 158//82 157//82
f 170//82 157//82 171//82
f 171//83 157//83 156//83
f 171//83 156//83 172//83
f 172//84 156//84 155//84
f 172//84 155//84 173//84
f 173//85 155//85 154//85
f 173//85 154//85 174//85
f 174//86 154//86 153//86
f 174//86 153//86 166//86
f 166//87 153//87 152//87
f 166//87 152//87 159//87
f 159//88 152//88 151//88
f 159//88 151//88 160//88
f 1//89 11//89 203//89
f 1//89 203//89 191//89
f 191//90 203//90 205//90
f 191//90 205//90 190//90
f 190//91 205//91 206//91
f 190//91 206//91 188//91
f 188//92 206//92 208//92
f 188//92 208//92 187//92
f 187//93 208//93 209//93
f 187//93 209//93 198//93
f 198//94 209//94 211//94
f 198//94 211//94 199//94
f 199//95 211//95 213//95
f 199//95 213//95 200//95
f 200//96 213//96 214//96
f 200//96 214//96 196//96
f 196//97 214//97 136//97
f 196//97 136//97 135//97
f 77//98 99//98 201//98
f 201//98 99//98 193//98
f 201//99 193//99 202//99
f 202//99 193//99 192//99
f 202//100 192//100 204//100
f 204//100 192//100 189//100
f 204//101 189//101 207//101
f 207//101 189//101 186//101
f 207//102 186//102 210//102
f 210//102 186//102 185//102
f 210//103 185//103 212//103
f 212//103 185//103 197//103
f 212//104 197//104 215//104
f 215//104 197//104 195//104
f 215//105 195//105 216//105
f 216//105 195//105 194//105
f 216//106 194//106 163//106
f 163//106 194//106 162//106
f 160//6 151//6 161//6
f 161//6 151//6 134//6
f 161//2 134//2 164//2
f 164//2 134//2 133//2
f 164//5 133//5 180//5
f 180//5 133//5 150//5
