# Blender v2.83.2 OBJ File: ''
# www.blender.org
mtllib TechniqueCObject.mtl
o TechniqueCObject
v -0.500000 -0.500000 0.000000
v -0.500000 -0.500000 0.500000
v -0.500000 0.500000 0.000000
v -0.500000 -0.170000 0.500000
v 0.000000 -0.170000 0.500000
v 0.500000 -0.500000 0.500000
v 0.000000 -0.000000 0.500000
v 0.500000 -0.000000 0.500000
v 0.000000 0.500000 0.000000
v 0.000000 -0.000000 0.373134
v 0.000000 -0.000000 0.000000
v 0.500000 0.000000 -0.500000
v 0.500000 -0.500000 -0.500000
v 0.000000 0.000000 -0.500000
v 0.000000 -0.500000 -0.500000
v 0.000000 -0.500000 -0.500000
v 0.000000 -0.500000 0.000000
v -0.500000 -0.500000 0.000000
v 0.000000 0.000000 -0.500000
v -0.500000 0.500000 0.000000
v -0.500000 0.500000 0.000000
v -0.500000 -0.170000 0.500000
vn -1.0000 0.0000 0.0000
vn 0.0000 0.0000 1.0000
vn 1.0000 0.0000 0.0000
vn 0.0000 0.0000 -1.0000
vn 0.0000 -1.0000 0.0000
vn 0.0000 1.0000 0.0000
vn 0.0000 0.5981 0.8014
usemtl None
s off
f 1//1 2//1 3//1
f 3//1 2//1 4//1
f 4//2 2//2 5//2
f 5//2 2//2 6//2
f 5//2 6//2 7//2
f 7//2 6//2 8//2
f 9//3 10//3 11//3
f 12//4 13//4 14//4
f 14//4 13//4 15//4
f 8//3 6//3 12//3
f 12//3 6//3 13//3
f 16//5 13//5 17//5
f 17//5 13//5 6//5
f 17//5 6//5 18//5
f 18//5 6//5 2//5
f 12//6 14//6 11//6
f 12//6 11//6 8//6
f 8//6 11//6 10//6
f 8//6 10//6 7//6
f 16//1 17//1 19//1
f 19//1 17//1 11//1
f 20//4 9//4 18//4
f 18//4 9//4 11//4
f 18//4 11//4 17//4
f 10//1 5//1 7//1
f 9//7 21//7 10//7
f 10//7 21//7 22//7
f 10//7 22//7 5//7
